<mxfile host="65bd71144e">
    <diagram id="7EmEZnSCJRzFDWp1hv6j" name="Page-1">
        <mxGraphModel dx="595" dy="716" grid="1" gridSize="10" guides="1" tooltips="1" connect="1" arrows="1" fold="1" page="1" pageScale="1" pageWidth="827" pageHeight="1169" background="none" math="0" shadow="0">
            <root>
                <mxCell id="0"/>
                <mxCell id="1" parent="0"/>
                <mxCell id="EVe9-GU8BSjDjMXBqOm3-2" value="" style="rounded=0;whiteSpace=wrap;html=1;fillColor=#A8DADC;strokeColor=#457B9D;fontColor=#1D3557;" parent="1" vertex="1">
                    <mxGeometry x="40" y="30" width="790" height="270" as="geometry"/>
                </mxCell>
                <mxCell id="EVe9-GU8BSjDjMXBqOm3-4" value="" style="rounded=0;whiteSpace=wrap;html=1;fillColor=#A8DADC;strokeColor=#457B9D;fontColor=#1D3557;" parent="1" vertex="1">
                    <mxGeometry x="80" y="120" width="430" height="100" as="geometry"/>
                </mxCell>
                <mxCell id="EVe9-GU8BSjDjMXBqOm3-5" value="" style="curved=1;endArrow=classic;html=1;rounded=0;entryX=0;entryY=0.25;entryDx=0;entryDy=0;labelBackgroundColor=#F1FAEE;strokeColor=#457B9D;fontColor=#1D3557;exitX=1;exitY=0.25;exitDx=0;exitDy=0;startArrow=none;" parent="1" source="KBYwlo9_2HeZKr117ce5-3" target="EVe9-GU8BSjDjMXBqOm3-4" edge="1">
                    <mxGeometry width="50" height="50" relative="1" as="geometry">
                        <mxPoint x="530" y="430" as="sourcePoint"/>
                        <mxPoint x="580" y="380" as="targetPoint"/>
                        <Array as="points"/>
                    </mxGeometry>
                </mxCell>
                <mxCell id="EVe9-GU8BSjDjMXBqOm3-6" value="Current Price" style="rounded=0;whiteSpace=wrap;html=1;fillColor=#A8DADC;strokeColor=#457B9D;fontColor=#1D3557;" parent="1" vertex="1">
                    <mxGeometry x="530" y="120" width="120" height="40" as="geometry"/>
                </mxCell>
                <mxCell id="EVe9-GU8BSjDjMXBqOm3-7" value="Last predicted Price" style="rounded=0;whiteSpace=wrap;html=1;fillColor=#A8DADC;strokeColor=#457B9D;fontColor=#1D3557;" parent="1" vertex="1">
                    <mxGeometry x="530" y="180" width="120" height="40" as="geometry"/>
                </mxCell>
                <mxCell id="KBYwlo9_2HeZKr117ce5-17" style="edgeStyle=orthogonalEdgeStyle;rounded=0;orthogonalLoop=1;jettySize=auto;html=1;exitX=0.5;exitY=1;exitDx=0;exitDy=0;entryX=0;entryY=0.5;entryDx=0;entryDy=0;" parent="1" source="EVe9-GU8BSjDjMXBqOm3-9" target="KBYwlo9_2HeZKr117ce5-16" edge="1">
                    <mxGeometry relative="1" as="geometry">
                        <Array as="points">
                            <mxPoint x="870" y="160"/>
                            <mxPoint x="870" y="215"/>
                        </Array>
                    </mxGeometry>
                </mxCell>
                <mxCell id="EVe9-GU8BSjDjMXBqOm3-9" value="Next Predicted Price" style="rounded=0;whiteSpace=wrap;html=1;fillColor=#A8DADC;strokeColor=#457B9D;fontColor=#1D3557;" parent="1" vertex="1">
                    <mxGeometry x="670" y="120" width="120" height="40" as="geometry"/>
                </mxCell>
                <mxCell id="EVe9-GU8BSjDjMXBqOm3-10" value="Next Predicted PCT change" style="rounded=0;whiteSpace=wrap;html=1;fillColor=#A8DADC;strokeColor=#457B9D;fontColor=#1D3557;" parent="1" vertex="1">
                    <mxGeometry x="670" y="180" width="120" height="40" as="geometry"/>
                </mxCell>
                <mxCell id="EVe9-GU8BSjDjMXBqOm3-11" value="&lt;font style=&quot;font-size: 18px;&quot;&gt;&lt;u&gt;&lt;b&gt;BTC-USD Price Prophet&lt;/b&gt;&lt;/u&gt;&lt;br&gt;&lt;/font&gt;" style="rounded=0;whiteSpace=wrap;html=1;strokeColor=#457B9D;fontColor=#1D3557;fillColor=#A8DADC;" parent="1" vertex="1">
                    <mxGeometry x="80" y="50" width="270" height="60" as="geometry"/>
                </mxCell>
                <mxCell id="EVe9-GU8BSjDjMXBqOm3-13" value="" style="rounded=0;whiteSpace=wrap;html=1;strokeColor=#457B9D;fontSize=18;fontColor=#1D3557;fillColor=#A8DADC;" parent="1" vertex="1">
                    <mxGeometry x="40" y="340" width="790" height="160" as="geometry"/>
                </mxCell>
                <mxCell id="EVe9-GU8BSjDjMXBqOm3-14" value="Agent Address" style="swimlane;fontStyle=0;childLayout=stackLayout;horizontal=1;startSize=30;horizontalStack=0;resizeParent=1;resizeParentMax=0;resizeLast=0;collapsible=1;marginBottom=0;strokeColor=#457B9D;fontSize=18;fontColor=#1D3557;fillColor=#A8DADC;" parent="1" vertex="1">
                    <mxGeometry x="80" y="370" width="140" height="120" as="geometry"/>
                </mxCell>
                <mxCell id="EVe9-GU8BSjDjMXBqOm3-15" value="Item 1" style="text;strokeColor=none;fillColor=none;align=left;verticalAlign=middle;spacingLeft=4;spacingRight=4;overflow=hidden;points=[[0,0.5],[1,0.5]];portConstraint=eastwest;rotatable=0;fontSize=18;fontColor=#1D3557;" parent="EVe9-GU8BSjDjMXBqOm3-14" vertex="1">
                    <mxGeometry y="30" width="140" height="30" as="geometry"/>
                </mxCell>
                <mxCell id="EVe9-GU8BSjDjMXBqOm3-16" value="Item 2" style="text;strokeColor=none;fillColor=none;align=left;verticalAlign=middle;spacingLeft=4;spacingRight=4;overflow=hidden;points=[[0,0.5],[1,0.5]];portConstraint=eastwest;rotatable=0;fontSize=18;fontColor=#1D3557;" parent="EVe9-GU8BSjDjMXBqOm3-14" vertex="1">
                    <mxGeometry y="60" width="140" height="30" as="geometry"/>
                </mxCell>
                <mxCell id="EVe9-GU8BSjDjMXBqOm3-17" value="Item 3" style="text;strokeColor=none;fillColor=none;align=left;verticalAlign=middle;spacingLeft=4;spacingRight=4;overflow=hidden;points=[[0,0.5],[1,0.5]];portConstraint=eastwest;rotatable=0;fontSize=18;fontColor=#1D3557;" parent="EVe9-GU8BSjDjMXBqOm3-14" vertex="1">
                    <mxGeometry y="90" width="140" height="30" as="geometry"/>
                </mxCell>
                <mxCell id="EVe9-GU8BSjDjMXBqOm3-18" value="Agent State" style="swimlane;fontStyle=0;childLayout=stackLayout;horizontal=1;startSize=30;horizontalStack=0;resizeParent=1;resizeParentMax=0;resizeLast=0;collapsible=1;marginBottom=0;strokeColor=#457B9D;fontSize=18;fontColor=#1D3557;fillColor=#A8DADC;" parent="1" vertex="1">
                    <mxGeometry x="220" y="370" width="140" height="120" as="geometry"/>
                </mxCell>
                <mxCell id="EVe9-GU8BSjDjMXBqOm3-19" value="Item 1" style="text;strokeColor=none;fillColor=none;align=left;verticalAlign=middle;spacingLeft=4;spacingRight=4;overflow=hidden;points=[[0,0.5],[1,0.5]];portConstraint=eastwest;rotatable=0;fontSize=18;fontColor=#1D3557;" parent="EVe9-GU8BSjDjMXBqOm3-18" vertex="1">
                    <mxGeometry y="30" width="140" height="30" as="geometry"/>
                </mxCell>
                <mxCell id="EVe9-GU8BSjDjMXBqOm3-20" value="Item 2" style="text;strokeColor=none;fillColor=none;align=left;verticalAlign=middle;spacingLeft=4;spacingRight=4;overflow=hidden;points=[[0,0.5],[1,0.5]];portConstraint=eastwest;rotatable=0;fontSize=18;fontColor=#1D3557;" parent="EVe9-GU8BSjDjMXBqOm3-18" vertex="1">
                    <mxGeometry y="60" width="140" height="30" as="geometry"/>
                </mxCell>
                <mxCell id="EVe9-GU8BSjDjMXBqOm3-21" value="Item 3" style="text;strokeColor=none;fillColor=none;align=left;verticalAlign=middle;spacingLeft=4;spacingRight=4;overflow=hidden;points=[[0,0.5],[1,0.5]];portConstraint=eastwest;rotatable=0;fontSize=18;fontColor=#1D3557;" parent="EVe9-GU8BSjDjMXBqOm3-18" vertex="1">
                    <mxGeometry y="90" width="140" height="30" as="geometry"/>
                </mxCell>
                <mxCell id="EVe9-GU8BSjDjMXBqOm3-22" value="Agent" style="swimlane;fontStyle=0;childLayout=stackLayout;horizontal=1;startSize=30;horizontalStack=0;resizeParent=1;resizeParentMax=0;resizeLast=0;collapsible=1;marginBottom=0;strokeColor=#457B9D;fontSize=18;fontColor=#1D3557;fillColor=#A8DADC;" parent="1" vertex="1">
                    <mxGeometry x="360" y="370" width="450" height="120" as="geometry"/>
                </mxCell>
                <mxCell id="EVe9-GU8BSjDjMXBqOm3-23" value="Item 1" style="text;strokeColor=none;fillColor=none;align=left;verticalAlign=middle;spacingLeft=4;spacingRight=4;overflow=hidden;points=[[0,0.5],[1,0.5]];portConstraint=eastwest;rotatable=0;fontSize=18;fontColor=#1D3557;" parent="EVe9-GU8BSjDjMXBqOm3-22" vertex="1">
                    <mxGeometry y="30" width="450" height="30" as="geometry"/>
                </mxCell>
                <mxCell id="EVe9-GU8BSjDjMXBqOm3-24" value="Item 2" style="text;strokeColor=none;fillColor=none;align=left;verticalAlign=middle;spacingLeft=4;spacingRight=4;overflow=hidden;points=[[0,0.5],[1,0.5]];portConstraint=eastwest;rotatable=0;fontSize=18;fontColor=#1D3557;" parent="EVe9-GU8BSjDjMXBqOm3-22" vertex="1">
                    <mxGeometry y="60" width="450" height="30" as="geometry"/>
                </mxCell>
                <mxCell id="EVe9-GU8BSjDjMXBqOm3-25" value="Item 3" style="text;strokeColor=none;fillColor=none;align=left;verticalAlign=middle;spacingLeft=4;spacingRight=4;overflow=hidden;points=[[0,0.5],[1,0.5]];portConstraint=eastwest;rotatable=0;fontSize=18;fontColor=#1D3557;" parent="EVe9-GU8BSjDjMXBqOm3-22" vertex="1">
                    <mxGeometry y="90" width="450" height="30" as="geometry"/>
                </mxCell>
                <mxCell id="KBYwlo9_2HeZKr117ce5-2" value="Time" style="text;html=1;strokeColor=none;fillColor=none;align=center;verticalAlign=middle;whiteSpace=wrap;rounded=0;" parent="1" vertex="1">
                    <mxGeometry x="265" y="230" width="60" height="30" as="geometry"/>
                </mxCell>
                <mxCell id="KBYwlo9_2HeZKr117ce5-3" value="&lt;div&gt;Price&lt;/div&gt;" style="text;html=1;strokeColor=none;fillColor=none;align=center;verticalAlign=middle;whiteSpace=wrap;rounded=0;" parent="1" vertex="1">
                    <mxGeometry x="40" y="160" width="60" height="30" as="geometry"/>
                </mxCell>
                <mxCell id="KBYwlo9_2HeZKr117ce5-4" value="" style="curved=1;endArrow=none;html=1;rounded=0;entryX=1;entryY=0.25;entryDx=0;entryDy=0;labelBackgroundColor=#F1FAEE;strokeColor=#457B9D;fontColor=#1D3557;exitX=1;exitY=0.25;exitDx=0;exitDy=0;" parent="1" source="EVe9-GU8BSjDjMXBqOm3-4" target="KBYwlo9_2HeZKr117ce5-3" edge="1">
                    <mxGeometry width="50" height="50" relative="1" as="geometry">
                        <mxPoint x="510" y="145" as="sourcePoint"/>
                        <mxPoint x="80" y="145" as="targetPoint"/>
                        <Array as="points">
                            <mxPoint x="380" y="190"/>
                            <mxPoint x="360" y="120"/>
                            <mxPoint x="110" y="240"/>
                        </Array>
                    </mxGeometry>
                </mxCell>
                <mxCell id="KBYwlo9_2HeZKr117ce5-5" value="Tabluar data is retrieved from;&#10;&#10;&#10;```&#10;curl http://146.190.230.176:5000/peers/1 &#10;```&#10;&#10;Where the integer represents one of the 4 agents.&#10;&#10;" style="text;strokeColor=none;fillColor=none;align=left;verticalAlign=middle;spacingLeft=4;spacingRight=4;overflow=hidden;points=[[0,0.5],[1,0.5]];portConstraint=eastwest;rotatable=0;" parent="1" vertex="1">
                    <mxGeometry x="90" y="520" width="330" height="130" as="geometry"/>
                </mxCell>
                <mxCell id="KBYwlo9_2HeZKr117ce5-9" style="edgeStyle=orthogonalEdgeStyle;rounded=0;orthogonalLoop=1;jettySize=auto;html=1;entryX=0.916;entryY=0;entryDx=0;entryDy=0;entryPerimeter=0;" parent="1" source="KBYwlo9_2HeZKr117ce5-7" target="EVe9-GU8BSjDjMXBqOm3-4" edge="1">
                    <mxGeometry relative="1" as="geometry"/>
                </mxCell>
                <mxCell id="KBYwlo9_2HeZKr117ce5-7" value="Time series data is retrieved from ftx&#10;&#10;&#10;```&#10;➤ curl &quot;https://ftx.com/api/markets/BTC/USD/candles?resolution=60&quot;&#10;```&#10;resolution is in seconds, and the object gives back &#10;&#10;" style="text;strokeColor=none;fillColor=none;align=left;verticalAlign=middle;spacingLeft=4;spacingRight=4;overflow=hidden;points=[[0,0.5],[1,0.5]];portConstraint=eastwest;rotatable=0;" parent="1" vertex="1">
                    <mxGeometry x="900" y="15" width="440" height="135" as="geometry"/>
                </mxCell>
                <mxCell id="KBYwlo9_2HeZKr117ce5-8" value="" style="curved=1;endArrow=classic;html=1;rounded=0;entryX=0.886;entryY=0.033;entryDx=0;entryDy=0;entryPerimeter=0;" parent="1" source="KBYwlo9_2HeZKr117ce5-5" target="EVe9-GU8BSjDjMXBqOm3-21" edge="1">
                    <mxGeometry width="50" height="50" relative="1" as="geometry">
                        <mxPoint x="740" y="590" as="sourcePoint"/>
                        <mxPoint x="790" y="540" as="targetPoint"/>
                        <Array as="points">
                            <mxPoint x="790" y="590"/>
                            <mxPoint x="740" y="540"/>
                        </Array>
                    </mxGeometry>
                </mxCell>
                <mxCell id="KBYwlo9_2HeZKr117ce5-12" style="edgeStyle=orthogonalEdgeStyle;rounded=0;orthogonalLoop=1;jettySize=auto;html=1;exitX=0;exitY=0.5;exitDx=0;exitDy=0;" parent="1" source="KBYwlo9_2HeZKr117ce5-11" target="EVe9-GU8BSjDjMXBqOm3-6" edge="1">
                    <mxGeometry relative="1" as="geometry">
                        <Array as="points">
                            <mxPoint x="910" y="150"/>
                            <mxPoint x="870" y="150"/>
                            <mxPoint x="870" y="100"/>
                            <mxPoint x="590" y="100"/>
                        </Array>
                    </mxGeometry>
                </mxCell>
                <mxCell id="KBYwlo9_2HeZKr117ce5-11" value="Read from FTX" style="text;html=1;strokeColor=none;fillColor=none;align=center;verticalAlign=middle;whiteSpace=wrap;rounded=0;" parent="1" vertex="1">
                    <mxGeometry x="910" y="140" width="120" height="50" as="geometry"/>
                </mxCell>
                <mxCell id="KBYwlo9_2HeZKr117ce5-14" style="edgeStyle=orthogonalEdgeStyle;rounded=0;orthogonalLoop=1;jettySize=auto;html=1;entryX=0.5;entryY=1;entryDx=0;entryDy=0;" parent="1" source="KBYwlo9_2HeZKr117ce5-13" target="EVe9-GU8BSjDjMXBqOm3-7" edge="1">
                    <mxGeometry relative="1" as="geometry"/>
                </mxCell>
                <mxCell id="KBYwlo9_2HeZKr117ce5-15" style="edgeStyle=orthogonalEdgeStyle;rounded=0;orthogonalLoop=1;jettySize=auto;html=1;exitX=0;exitY=0.5;exitDx=0;exitDy=0;entryX=0.558;entryY=0.975;entryDx=0;entryDy=0;entryPerimeter=0;" parent="1" source="KBYwlo9_2HeZKr117ce5-13" target="EVe9-GU8BSjDjMXBqOm3-10" edge="1">
                    <mxGeometry relative="1" as="geometry"/>
                </mxCell>
                <mxCell id="KBYwlo9_2HeZKr117ce5-13" value="&lt;div&gt;Read from Smart contract&lt;/div&gt;" style="text;html=1;strokeColor=none;fillColor=none;align=center;verticalAlign=middle;whiteSpace=wrap;rounded=0;" parent="1" vertex="1">
                    <mxGeometry x="910" y="240" width="120" height="50" as="geometry"/>
                </mxCell>
                <mxCell id="KBYwlo9_2HeZKr117ce5-16" value="Current Price * (1 + Next Predicted * change) " style="text;html=1;strokeColor=none;fillColor=none;align=center;verticalAlign=middle;whiteSpace=wrap;rounded=0;" parent="1" vertex="1">
                    <mxGeometry x="940" y="200" width="190" height="30" as="geometry"/>
                </mxCell>
            </root>
        </mxGraphModel>
    </diagram>
</mxfile>